<?xml version="1.0" standalone="no"?>
<!DOCTYPE svg PUBLIC "-//W3C//DTD SVG 20010904//EN"
 "http://www.w3.org/TR/2001/REC-SVG-20010904/DTD/svg10.dtd">
<svg version="1.0" xmlns="http://www.w3.org/2000/svg"
 width="500.000000pt" height="500.000000pt" viewBox="0 0 500.000000 500.000000"
 preserveAspectRatio="xMidYMid meet">
<metadata>
Created by potrace 1.11, written by Peter Selinger 2001-2013
</metadata>
<g transform="translate(0.000000,500.000000) scale(0.100000,-0.100000)"
fill="#000000" stroke="none">
<path d="M3460 4993 c-14 -3 -33 -12 -42 -20 -10 -9 -18 -14 -18 -10 0 16
-157 -46 -243 -96 -54 -31 -100 -57 -102 -57 -13 0 -82 -55 -91 -72 -6 -11
-35 -35 -65 -54 -30 -18 -47 -34 -39 -34 12 0 11 -3 -3 -11 -9 -5 -22 -7 -27
-4 -6 4 -23 -4 -39 -17 -16 -13 -74 -54 -130 -91 -86 -58 -101 -72 -101 -95 0
-56 -10 -67 -123 -132 -116 -67 -300 -213 -399 -316 -82 -85 -129 -145 -123
-155 6 -9 32 -2 52 14 23 17 111 15 140 -4 17 -11 31 -15 38 -9 21 17 37 -4
25 -34 -9 -24 -15 -28 -40 -24 -29 4 -52 -18 -31 -31 5 -4 8 -15 6 -26 -2 -11
-4 -23 -4 -27 -1 -4 -14 -5 -30 -2 -23 5 -29 2 -34 -15 -3 -12 -1 -23 4 -26
13 -9 -13 -56 -28 -51 -7 3 -13 1 -13 -4 0 -6 9 -10 20 -10 11 0 20 -4 20 -9
0 -4 -11 -6 -25 -3 -14 2 -32 -1 -40 -8 -8 -7 -20 -8 -27 -4 -7 5 -20 9 -30 9
-17 0 -58 45 -58 65 0 8 -11 11 -30 8 -17 -3 -33 -1 -36 3 -6 10 -33 1 -56
-18 -39 -34 -162 -331 -179 -433 -5 -30 -11 -66 -15 -80 -3 -14 -9 -81 -14
-150 -8 -115 -27 -225 -49 -282 -23 -60 -126 -127 -201 -130 -25 -1 -79 6
-120 16 -41 10 -88 21 -105 25 -42 10 -138 -5 -188 -30 -71 -36 -156 -129
-117 -129 6 0 20 -9 31 -19 12 -11 59 -32 105 -47 64 -20 98 -39 142 -76 31
-26 60 -52 64 -56 3 -4 34 -36 67 -72 34 -36 64 -73 67 -82 3 -10 9 -18 14
-18 5 0 24 -16 41 -35 18 -19 40 -37 50 -40 10 -3 16 -12 13 -18 -7 -20 89
-87 109 -76 12 7 20 2 34 -21 10 -17 29 -34 43 -37 14 -3 30 -9 35 -13 28 -21
224 -72 290 -76 97 -6 106 -8 103 -24 -2 -8 3 -23 11 -32 8 -9 16 -25 17 -35
2 -10 8 -19 13 -21 21 -7 12 -72 -13 -95 -39 -37 -57 -85 -61 -161 -2 -47 -10
-84 -24 -111 -12 -21 -21 -52 -21 -67 0 -15 -8 -33 -17 -40 -10 -7 -20 -24
-21 -38 -2 -14 -13 -50 -24 -80 -10 -30 -23 -75 -28 -100 -10 -53 -141 -313
-178 -352 -14 -16 -20 -28 -14 -28 20 0 13 -21 -8 -27 -23 -6 -25 -14 -9 -30
6 -6 8 -17 4 -23 -8 -13 -113 -8 -170 8 -51 15 -177 8 -206 -11 -16 -11 -40
-16 -65 -13 -41 3 -102 -14 -142 -40 -34 -22 -20 -29 18 -9 37 19 113 23 132
8 7 -6 47 -11 88 -12 41 -1 89 -3 105 -5 17 -2 36 -4 43 -5 6 -1 12 -6 12 -12
0 -14 -51 -59 -67 -59 -6 0 -14 -4 -17 -9 -10 -16 89 1 116 20 15 10 53 30 85
44 32 14 74 41 93 59 19 18 51 44 71 58 19 15 64 66 99 115 68 93 67 92 103
138 31 40 52 76 127 220 34 66 69 128 77 137 8 9 19 36 24 60 6 23 20 56 33
73 13 16 33 49 45 72 11 23 36 59 54 80 22 25 32 47 32 70 0 49 16 41 35 -19
23 -71 58 -197 64 -228 3 -14 8 -40 12 -57 4 -21 2 -38 -6 -48 -7 -9 -9 -27
-5 -52 10 -55 11 -148 2 -223 -5 -36 -10 -85 -13 -110 -2 -25 -9 -68 -15 -96
-6 -33 -6 -60 0 -76 8 -21 7 -27 -8 -31 -11 -3 -22 -21 -29 -49 -6 -24 -21
-56 -32 -70 -11 -15 -20 -30 -20 -35 0 -21 -113 -115 -167 -141 -69 -32 -138
-36 -216 -15 -54 15 -113 11 -102 -7 3 -5 12 -7 20 -3 9 3 22 0 30 -7 9 -7 47
-15 85 -18 128 -9 69 -58 -82 -68 -67 -4 -148 -24 -148 -36 0 -2 48 -3 108 -2
90 1 114 5 151 23 55 28 70 17 38 -30 -36 -54 -39 -59 -28 -59 5 0 12 8 15 18
4 11 16 24 29 31 12 7 36 30 52 51 17 21 48 48 70 61 22 12 50 30 63 40 26 20
64 26 195 34 67 4 101 11 144 31 49 24 62 26 95 17 45 -12 49 -9 11 10 -33 16
-44 15 -100 -1 -61 -18 -121 -27 -188 -27 -48 0 -60 3 -63 17 -4 19 64 59 86
51 6 -3 12 2 12 9 0 8 16 29 35 48 38 37 120 168 111 177 -3 3 4 19 15 35 12
16 19 38 16 49 -5 17 14 76 52 164 8 19 32 134 52 250 5 28 17 79 28 115 11
36 22 79 25 95 13 85 17 113 21 142 6 46 25 114 41 146 13 24 19 27 57 24 23
-2 49 -6 57 -10 8 -3 67 -15 130 -28 129 -26 264 -29 395 -9 44 6 96 14 115
16 19 3 46 7 60 11 14 3 70 7 125 9 55 2 115 6 133 8 17 2 35 0 38 -5 8 -14
36 -11 56 8 17 15 18 15 18 0 0 -22 29 -22 46 0 9 14 10 21 1 32 -10 12 -7 13
16 7 22 -5 27 -3 28 11 0 11 3 13 6 6 2 -7 12 -13 20 -13 13 0 13 3 3 15 -9
11 -9 15 -1 15 7 0 9 5 6 10 -4 6 -10 8 -14 6 -3 -3 -27 0 -52 5 l-45 10 42
45 c24 27 54 49 72 53 26 5 28 9 21 28 l-8 23 -25 -25 c-14 -14 -33 -25 -43
-25 -10 0 -24 -9 -31 -21 -22 -35 -77 -52 -144 -44 -32 4 -65 13 -73 21 -14
15 -10 44 6 44 5 0 9 5 9 10 0 6 -15 9 -35 7 -19 -2 -36 0 -38 6 -1 5 -28 10
-59 10 -54 0 -56 0 -65 32 -9 27 -7 35 8 46 11 7 19 17 19 21 0 9 -108 3 -118
-6 -8 -9 19 -27 30 -20 4 3 16 0 25 -5 15 -8 11 -11 -22 -12 -57 -3 -65 -3
-110 6 -22 5 -56 9 -75 10 -19 0 -39 3 -45 6 -5 3 -26 6 -45 8 -67 6 -160 63
-160 100 0 9 -4 21 -10 27 -20 20 -17 56 9 82 15 15 21 27 14 29 -7 3 -10 10
-7 17 3 8 -2 16 -11 20 -14 5 -13 10 7 38 45 63 98 103 138 105 45 1 96 25 68
31 -26 5 -22 17 10 32 15 7 22 15 15 17 -8 3 0 21 21 51 19 26 37 57 40 68 7
23 61 84 74 84 4 0 28 19 55 41 57 49 107 119 111 157 2 15 4 31 5 35 0 5 5 5
11 2 20 -12 34 105 17 139 -8 14 -12 39 -9 54 3 15 5 49 4 75 0 31 6 61 19 83
10 19 19 43 19 53 0 10 9 30 21 45 11 14 16 26 10 26 -6 0 -11 5 -11 10 0 6
11 10 25 10 19 0 26 7 31 28 4 15 14 37 22 49 8 13 11 30 8 40 -4 9 -2 19 4
23 10 6 16 80 9 105 -5 22 30 145 41 145 6 0 10 6 10 14 0 19 89 78 114 75 6
-1 25 2 43 6 27 6 30 10 21 25 -9 14 -6 35 13 95 13 42 32 85 42 96 10 11 21
36 24 56 6 35 52 93 73 93 22 0 8 22 -22 35 -28 12 -36 12 -55 0 -18 -12 -22
-12 -26 -1 -3 8 0 22 8 32 9 13 10 23 3 31 -11 14 27 72 49 74 7 1 18 3 23 4
6 1 15 3 20 4 6 0 10 11 10 23 0 11 11 36 25 54 14 19 19 31 12 28 -8 -3 -17
2 -20 10 -4 9 -13 13 -21 10 -8 -3 -17 0 -21 5 -3 6 -12 8 -18 4 -7 -4 -7 0 1
10 8 9 10 21 6 28 -5 8 -12 3 -21 -15 -7 -14 -17 -26 -22 -26 -18 0 -20 15 -4
32 26 29 2 47 -27 20 -19 -18 -42 -26 -115 -39 -15 -3 -13 2 10 18 32 23 95
101 95 119 0 5 -6 11 -12 11 -40 4 -74 3 -83 -2 -5 -4 -20 -9 -31 -13 -18 -5
-21 -3 -19 16 2 13 6 30 10 39 4 10 -3 27 -18 44 -23 27 -24 27 -49 11 -18
-12 -28 -14 -33 -6 -4 6 -13 9 -20 6 -9 -3 -15 4 -17 17 -2 14 -10 21 -21 21
-9 -1 -17 2 -17 8 0 16 29 66 42 71 10 4 10 8 -1 15 -11 8 -7 13 18 26 17 9
31 18 31 20 0 7 -80 5 -108 -4 -24 -6 -29 -5 -28 9 0 9 -5 16 -11 15 -7 -1
-33 -2 -57 -2 -25 -1 -51 -8 -58 -16 -8 -7 -23 -16 -35 -20 -18 -6 -20 -3 -16
14 6 21 -6 27 -22 11 -6 -4 -24 -13 -42 -19 -30 -10 -32 -9 -30 13 1 13 11 31
22 39 21 16 18 17 -25 9z m-802 -1345 c3 -23 -2 -30 -25 -39 -25 -9 -26 -12
-10 -20 23 -13 48 -64 41 -82 -7 -19 -57 -33 -62 -18 -2 6 -8 9 -13 6 -5 -4
-19 3 -31 14 -12 12 -26 21 -30 21 -5 0 -6 4 -3 10 3 6 -1 7 -9 4 -20 -8 -20
14 -1 40 8 11 15 27 15 35 0 31 39 58 83 57 38 -1 42 -4 45 -28z m238 -142 c8
-11 14 -35 14 -53 0 -28 -3 -32 -22 -30 -13 1 -23 -4 -23 -10 0 -17 -5 -17
-38 -2 -15 7 -30 9 -33 6 -11 -11 20 -33 51 -35 40 -3 52 -17 31 -38 -13 -12
-20 -14 -29 -5 -6 6 -26 11 -43 11 -18 0 -36 5 -39 10 -3 6 1 10 9 10 19 0 21
17 4 23 -13 4 -23 1 -65 -21 -28 -15 -36 -15 -28 -2 3 6 -1 10 -10 10 -9 0
-13 -5 -9 -11 4 -7 0 -9 -14 -5 -12 4 -30 2 -41 -3 -15 -8 -20 -7 -25 5 -7 19
-26 9 -26 -15 0 -11 -9 -21 -21 -24 -16 -4 -19 -10 -14 -27 6 -19 4 -21 -17
-15 -30 10 -31 11 -33 37 -1 12 -11 28 -22 35 -18 12 -23 12 -37 -3 -9 -9 -20
-14 -23 -10 -7 7 -6 76 1 84 3 2 25 5 48 5 24 1 45 4 48 8 7 10 108 12 192 4
l66 -6 -8 36 c-10 45 1 51 81 50 48 0 64 -4 75 -19z m-464 -388 c-19 -19 -14
-37 8 -33 29 6 49 -37 29 -61 -7 -9 -3 -17 13 -28 12 -9 17 -16 10 -16 -6 0
-12 -5 -12 -11 0 -5 4 -8 9 -5 11 7 20 -14 13 -31 -2 -7 -11 -13 -20 -13 -13
0 -12 -3 3 -20 10 -11 14 -20 9 -20 -5 0 2 -9 16 -20 20 -16 22 -20 8 -20 -11
0 -18 -8 -18 -19 0 -11 -2 -25 -3 -33 -2 -7 -2 -10 0 -5 3 4 9 7 14 7 16 0 9
-30 -11 -47 -21 -18 -28 -63 -10 -63 15 0 12 -30 -2 -31 -7 0 -5 -4 6 -8 18
-7 18 -8 1 -25 -15 -15 -16 -19 -4 -27 8 -5 10 -9 5 -9 -5 0 -3 -6 3 -13 8
-10 6 -23 -9 -52 -19 -37 -18 -61 1 -50 5 4 9 3 9 -2 0 -8 -47 -33 -62 -33 -4
0 -8 9 -8 20 0 12 7 20 17 20 15 0 15 2 -1 19 -18 19 -18 19 -41 -7 -30 -35
-15 -61 35 -64 l35 -1 -32 -4 c-35 -5 -46 -23 -14 -23 28 0 45 -24 26 -40 -17
-14 -50 -6 -40 10 4 6 -5 10 -22 9 -23 0 -25 -2 -9 -8 16 -6 13 -11 -23 -29
-23 -12 -47 -20 -52 -16 -18 11 -59 14 -59 4 0 -5 -5 -10 -11 -10 -7 0 -9 10
-4 28 7 27 6 27 -13 7 -10 -11 -15 -21 -11 -23 14 -6 10 -28 -6 -42 -8 -7 -15
-19 -15 -27 0 -11 3 -11 14 -1 8 7 12 16 9 21 -2 4 8 7 22 7 15 0 24 -4 20
-10 -3 -5 -1 -10 4 -10 6 0 11 5 11 10 0 21 37 9 68 -21 18 -18 30 -34 27 -37
-3 -3 0 -11 5 -17 8 -9 4 -14 -15 -19 -36 -9 -59 7 -60 41 0 21 -5 29 -22 31
-13 2 -23 -1 -23 -6 0 -5 10 -14 23 -20 21 -10 21 -11 -8 -13 -16 -1 -34 0
-40 1 -5 1 -18 4 -29 6 -10 2 -26 10 -36 19 -25 22 -43 19 -35 -6 5 -16 3 -20
-6 -17 -8 3 -13 17 -13 31 1 15 -4 27 -10 27 -17 -1 -47 -26 -39 -33 3 -4 -1
-7 -10 -7 -10 0 -17 5 -17 10 0 6 -13 10 -30 10 -16 0 -30 5 -30 12 0 6 -7 4
-18 -6 -18 -15 -21 -15 -48 9 -16 14 -36 25 -44 25 -8 0 -21 4 -29 9 -11 7
-11 13 1 38 12 25 13 31 0 42 -10 10 -17 10 -25 2 -6 -6 -37 -11 -70 -11 -53
0 -57 1 -43 16 9 8 16 24 16 34 0 10 8 20 18 22 24 6 53 -3 46 -13 -3 -5 4 -9
15 -9 11 0 23 -4 26 -10 9 -15 22 -12 22 5 0 8 -7 15 -15 15 -12 0 -12 3 -2
15 7 9 20 15 29 14 33 -5 121 13 115 23 -4 5 -17 8 -29 5 -26 -4 -40 21 -21
39 15 14 78 27 141 29 27 1 51 7 53 13 3 11 62 -7 62 -20 0 -4 6 -8 14 -8 8 0
21 -9 29 -20 11 -16 26 -21 65 -21 34 -1 53 -6 56 -16 10 -25 23 -5 21 32 -1
20 -12 49 -24 65 -11 16 -21 33 -21 38 0 4 -13 21 -30 37 -16 16 -30 35 -30
42 0 7 -4 13 -10 13 -5 0 -16 13 -25 30 -8 16 -24 37 -34 47 -14 13 -17 24
-10 41 5 12 11 22 13 22 10 0 54 -49 48 -54 -3 -3 2 -6 10 -6 9 0 18 -9 21
-20 3 -13 14 -20 30 -20 14 0 28 -4 32 -10 8 -13 35 -1 35 16 0 8 5 14 10 14
6 0 10 7 10 15 0 18 -1 18 -34 5 -23 -8 -29 -5 -63 36 -20 26 -47 50 -59 54
-29 12 -38 45 -11 47 34 3 40 19 13 37 -29 18 -32 42 -12 69 12 15 18 16 40 6
14 -7 23 -16 20 -21 -7 -10 36 -27 54 -21 19 8 15 19 -18 51 -34 35 -37 48
-12 55 9 2 25 8 35 12 13 6 16 3 11 -9 -8 -21 4 -20 28 1 14 12 18 13 18 2 0
-10 4 -9 17 4 10 9 22 17 27 17 6 0 5 -5 -2 -12z m-647 -778 c-3 -5 -10 -10
-16 -10 -5 0 -9 5 -9 10 0 6 7 10 16 10 8 0 12 -4 9 -10z"/>
<path d="M2494 3347 c3 -10 6 -26 6 -35 1 -14 3 -13 12 3 6 11 16 24 22 28 7
5 3 6 -8 3 -11 -4 -23 -1 -29 6 -6 9 -7 8 -3 -5z"/>
<path d="M2365 3046 c11 -8 23 -12 27 -10 16 10 7 20 -19 22 -26 2 -26 1 -8
-12z"/>
<path d="M2367 3014 c-12 -12 4 -24 30 -24 21 0 24 2 13 15 -13 16 -32 20 -43
9z"/>
<path d="M2440 3000 c0 -5 7 -10 16 -10 8 0 12 5 9 10 -3 6 -10 10 -16 10 -5
0 -9 -4 -9 -10z"/>
<path d="M2390 2714 c0 -17 22 -14 28 4 2 7 -3 12 -12 12 -9 0 -16 -7 -16 -16z"/>
<path d="M2413 2645 c0 -14 3 -25 8 -25 5 0 9 5 9 12 0 6 6 3 14 -7 9 -13 18
-16 32 -10 18 8 17 9 -4 13 -12 2 -28 12 -35 23 -16 26 -24 24 -24 -6z"/>
<path d="M2416 2566 c5 -14 34 -31 34 -20 0 3 -6 12 -14 20 -19 18 -27 18 -20
0z"/>
<path d="M1990 2475 c0 -9 6 -12 15 -9 8 4 15 10 15 15 0 5 -7 9 -15 9 -8 0
-15 -7 -15 -15z"/>
<path d="M2248 2483 c7 -3 16 -2 19 1 4 3 -2 6 -13 5 -11 0 -14 -3 -6 -6z"/>
<path d="M2175 2470 c-4 -6 3 -10 14 -10 25 0 27 6 6 13 -8 4 -17 2 -20 -3z"/>
<path d="M2252 2436 c1 -20 7 -35 13 -33 15 5 12 60 -3 65 -9 3 -12 -6 -10
-32z"/>
<path d="M1894 2421 c10 -15 62 -29 77 -21 10 7 6 12 -14 19 -35 13 -70 14
-63 2z"/>
<path d="M1735 2401 c-3 -5 4 -13 16 -16 23 -8 34 -1 24 14 -8 13 -32 14 -40
2z"/>
<path d="M2160 2365 c0 -2 9 -9 20 -15 16 -9 20 -8 20 5 0 8 -9 15 -20 15 -11
0 -20 -2 -20 -5z"/>
<path d="M2280 2361 c0 -9 24 -21 42 -21 6 0 6 6 -2 15 -14 16 -40 20 -40 6z"/>
<path d="M4135 4600 c-3 -5 1 -10 10 -10 9 0 13 5 10 10 -3 6 -8 10 -10 10 -2
0 -7 -4 -10 -10z"/>
<path d="M2060 3710 c0 -5 5 -10 11 -10 5 0 7 5 4 10 -3 6 -8 10 -11 10 -2 0
-4 -4 -4 -10z"/>
<path d="M1968 3675 c-3 -14 -1 -28 3 -31 5 -3 9 -2 10 3 0 4 2 18 3 31 4 30
-11 28 -16 -3z"/>
<path d="M1950 3594 c0 -8 5 -12 10 -9 6 3 10 10 10 16 0 5 -4 9 -10 9 -5 0
-10 -7 -10 -16z"/>
<path d="M1729 193 c-13 -16 -12 -17 4 -4 16 13 21 21 13 21 -2 0 -10 -8 -17
-17z"/>
</g>
</svg>
